<svg xmlns="http://www.w3.org/2000/svg" width="256" height="256"><path fill-opacity=".016" d="M0 128.004v128.004l128.25-.254 128.25-.254.254-127.75L257.008 0H0v128.004m.485.496c0 70.4.119 99.053.265 63.672.146-35.38.146-92.98 0-128C.604 29.153.485 58.1.485 128.5" fill="#1976D2" fill-rule="evenodd"/><path fill-opacity=".067" d="M117 25.094c-47.842 4.639-87.361 44.617-91.912 92.98-5.353 56.895 35.902 107.028 92.887 112.876 48.972 5.025 95.651-26.619 109.42-74.175 18.047-62.336-25.267-125.602-90.207-131.76-5.879-.557-10.913-.953-11.188-.879-.275.074-4.325.505-9 .958m30.632 66.76c-.898.992-1.632 2.218-1.631 2.725 0 .506 2.963 3.57 6.584 6.809l6.584 5.887 2.131-2.13 2.13-2.131-4.465-4.588c-2.456-2.524-5.643-5.44-7.083-6.482-2.521-1.822-2.679-1.826-4.25-.09M109.159 133.9c-18.713 20.295-36.065 39.584-38.559 42.864-4.546 5.977-11.809 18.758-13.07 22.997-.638 2.147-.53 2.2 2.149 1.055 9.346-3.993 20.583-12.818 35.888-28.184C121.623 146.469 157 109.8 157 108.953 157 108.001 144.963 97 143.921 97c-.405 0-16.048 16.605-34.762 36.9m38.367-11.221c-4.936 5.3-8.536 9.453-8 9.229 1.624-.68 18.906-18.91 17.905-18.887-.512.012-4.969 4.358-9.905 9.658" fill="#1976D2" fill-rule="evenodd"/><path fill-opacity=".223" d="M111.028 26.076c-22.046 3.913-41.374 14.27-57.082 30.587C40.768 70.351 32.909 84.295 27.831 103c-1.973 7.269-2.307 10.89-2.307 25 0 14.106.334 17.73 2.304 24.978 10.186 37.479 38.087 65.443 74.997 75.163 11.008 2.899 30.897 3.573 43.021 1.457 21.521-3.756 38.183-12.627 54.654-29.098 20.735-20.735 30.5-43.946 30.5-72.5 0-27.127-9.555-50.889-28.454-70.763-14.051-14.777-29.382-23.92-49.046-29.251-9.183-2.49-33.136-3.567-42.472-1.91m36.164 66.22l-2.157 2.296 6.455 6.398c3.55 3.519 6.23 6.623 5.955 6.898-.275.275-3.445-2.4-7.045-5.944l-6.546-6.444-2.677 3.107c-1.472 1.709-17.302 18.974-35.177 38.365-17.875 19.392-34.631 38.181-37.236 41.754C61.646 188.488 55.204 202 57.667 202c1.69 0 14.459-7.731 20.414-12.359 3.637-2.828 22.246-21.229 41.353-40.891C138.54 129.088 154.622 113 155.17 113c.548 0-2.866 4.139-7.587 9.198-4.721 5.06-8.565 9.672-8.543 10.25.022.579 4.258-3.448 9.413-8.948 6.269-6.69 9.067-10.368 8.451-11.112-.605-.732.373-2.57 2.862-5.374l3.782-4.262-6.604-6.376c-3.632-3.507-6.827-6.376-7.1-6.376-.272 0-1.466 1.033-2.652 2.296" fill="#1976D2" fill-rule="evenodd"/><path fill-opacity=".28" d="M111.835 26.475c-39.519 6.47-72.022 35.35-82.712 73.494-6.927 24.719-4.52 50.402 6.895 73.575 4.472 9.078 16.856 26.323 19.496 27.148.557.175 1.774-1.824 2.704-4.442 4.288-12.074 18.948-29.292 90.657-106.474.371-.398 4.037 2.377 8.149 6.168l7.476 6.893-2.729 2.788-2.73 2.789-3.27-2.957-3.271-2.957 2.902 3.214c2.249 2.489 2.649 3.52 1.774 4.574-.84 1.012-.829 1.659.044 2.532.896.896-.935 3.378-7.774 10.543-4.92 5.154-9.284 9.431-9.696 9.504-2.403.426.235-3.315 7.447-10.565 4.509-4.533 7.977-8.461 7.708-8.73-.27-.27-16.192 15.721-35.383 35.534-35.345 36.491-45.461 45.561-56.827 50.952l-5.805 2.754 7.805 6.112c10.1 7.91 25.218 15.394 37.805 18.717 8.748 2.309 11.941 2.639 25.5 2.639 13.431 0 16.784-.34 25.119-2.549 36.832-9.762 64.841-37.684 74.533-74.302 2.298-8.679 2.628-11.88 2.628-25.429 0-13.559-.33-16.752-2.639-25.5-9.935-37.638-40.773-67.23-78.141-74.984-11.158-2.315-27.179-2.758-37.665-1.041" fill="#1976D2" fill-rule="evenodd"/></svg>